<?xml version="1.0" encoding="UTF-8" standalone="no"?>
<svg
   xmlns:dc="http://purl.org/dc/elements/1.1/"
   xmlns:cc="http://creativecommons.org/ns#"
   xmlns:rdf="http://www.w3.org/1999/02/22-rdf-syntax-ns#"
   xmlns:svg="http://www.w3.org/2000/svg"
   xmlns="http://www.w3.org/2000/svg"
   xmlns:sodipodi="http://sodipodi.sourceforge.net/DTD/sodipodi-0.dtd"
   xmlns:inkscape="http://www.inkscape.org/namespaces/inkscape"
   width="16"
   height="16"
   fill="currentColor"
   class="bi bi-cup"
   viewBox="0 0 16 16"
   version="1.1"
   id="svg4"
   sodipodi:docname="cup-orange.svg"
   inkscape:version="1.0.2 (e86c870879, 2021-01-15)">
  <metadata
     id="metadata10">
    <rdf:RDF>
      <cc:Work
         rdf:about="">
        <dc:format>image/svg+xml</dc:format>
        <dc:type
           rdf:resource="http://purl.org/dc/dcmitype/StillImage" />
        <dc:title />
      </cc:Work>
    </rdf:RDF>
  </metadata>
  <defs
     id="defs8" />
  <sodipodi:namedview
     pagecolor="#ffffff"
     bordercolor="#666666"
     borderopacity="1"
     objecttolerance="10"
     gridtolerance="10"
     guidetolerance="10"
     inkscape:pageopacity="0"
     inkscape:pageshadow="2"
     inkscape:window-width="1191"
     inkscape:window-height="805"
     id="namedview6"
     showgrid="false"
     inkscape:zoom="36.4"
     inkscape:cx="8.5"
     inkscape:cy="8"
     inkscape:window-x="26"
     inkscape:window-y="23"
     inkscape:window-maximized="0"
     inkscape:current-layer="svg4"
     inkscape:document-rotation="0" />
  <path
     d="M 1,2.3296703 C 1,1.7773856 1.7773856,1 2.3296703,1 h 9.2472527 c 0.552285,0 1.32967,0.7773855 1.32967,1.3296703 V 3 h 1.236264 C 14.971284,3 16,4.0012432 16,4.8296703 V 11.17033 C 16,11.998757 14.971284,13 14.142857,13 h -1.286264 c -0.237634,1.164166 -1.591498,2.000243 -2.77967,2 H 3.8296703 C 2.4489584,15 1,13.551042 1,12.17033 Z M 12.906593,11.67033 h 1.236264 c 0.276142,0 0.5,-0.223858 0.5,-0.5 V 4.8571429 c 0,-0.2761424 -0.223858,-0.5 -0.5,-0.5 H 12.906593 Z M 11.576923,2.3296703 H 2.3296703 V 12.17033 c 0,0.828427 0.6715729,1.5 1.5,1.5 h 6.2472527 c 0.828427,0 1.5,-0.671573 1.5,-1.5 z"
     id="path2"
     style="fill:#ee5f00;fill-opacity:1;stroke-width:3;stroke-miterlimit:4;stroke-dasharray:none"
     sodipodi:nodetypes="sssscssssccssscssssccccssssc" />
</svg>
