<?xml version="1.0" encoding="utf-8"?>
<!-- Generator: Adobe Illustrator 18.0.0, SVG Export Plug-In . SVG Version: 6.00 Build 0)  -->
<!DOCTYPE svg PUBLIC "-//W3C//DTD SVG 1.1//EN" "http://www.w3.org/Graphics/SVG/1.1/DTD/svg11.dtd">
<svg version="1.1" id="Layer_1" xmlns="http://www.w3.org/2000/svg" xmlns:xlink="http://www.w3.org/1999/xlink" x="0px" y="0px"
	 viewBox="0 0 434.2 132.8" enable-background="new 0 0 434.2 132.8" xml:space="preserve">
<rect x="188.1" y="93" fill="#1C3E94" width="245.4" height="2.7"/>
<path fill="#1C3E94" d="M81.8,0C45.2,0,15.4,29.7,15.4,66.4c0,36.7,29.7,66.4,66.4,66.4c36.7,0,66.4-29.7,66.4-66.4
	C148.2,29.7,118.5,0,81.8,0 M124.7,66.4c0,23.7-19.2,42.8-42.9,42.8C58.2,109.2,39,90.1,39,66.4c0-23.7,19.2-42.8,42.8-42.8
	C105.5,23.6,124.7,42.7,124.7,66.4"/>
<rect x="0" y="53" fill="#1C3E94" width="163.4" height="26.9"/>
<polygon fill="#1C3E94" points="188.1,121.7 188.1,108.2 196.5,108.2 196.5,110.9 191.2,110.9 191.2,113.2 195.4,113.2 195.4,115.9 
	191.2,115.9 191.2,118.9 197,118.9 197,121.7 "/>
<polygon fill="#1C3E94" points="206,121.7 202.6,121.7 197.8,108.2 201.3,108.2 204.3,117.3 207.3,108.2 210.8,108.2 "/>
<polygon fill="#1C3E94" points="212.3,121.7 212.3,108.2 220.7,108.2 220.7,110.9 215.4,110.9 215.4,113.2 219.6,113.2 219.6,115.9 
	215.4,115.9 215.4,118.9 221.1,118.9 221.1,121.7 "/>
<path fill="#1C3E94" d="M226,110.7v3.2h1.1c0.6,0,1.1-0.2,1.4-0.5c0.3-0.3,0.5-0.7,0.5-1.2c0-0.4-0.2-0.8-0.5-1.1
	c-0.3-0.3-0.8-0.4-1.3-0.4H226z M229.9,121.7l-3.4-5.1H226v5.1h-3.2v-13.6h4.6c1.5,0,2.7,0.4,3.5,1.1c0.8,0.7,1.3,1.7,1.3,3
	c0,0.9-0.2,1.6-0.7,2.2c-0.4,0.6-1,1.1-1.8,1.4l3.9,5.8H229.9z"/>
<polygon fill="#1C3E94" points="241.9,116.2 241.9,121.7 238.7,121.7 238.7,116.2 234.1,108.2 237.7,108.2 240.3,113.2 242.9,108.2 
	246.5,108.2 "/>
<path fill="#1C3E94" d="M261.1,117.4c0,1.4-0.4,2.5-1.2,3.4c-0.8,0.8-1.9,1.2-3.4,1.2c-0.8,0-1.6-0.2-2.2-0.6
	c-0.6-0.4-1.1-1-1.6-1.9l2.5-1.4c0.3,0.7,0.8,1,1.3,1c0.9,0,1.4-0.7,1.4-2v-9h3.2V117.4z"/>
<path fill="#1C3E94" d="M270.1,119.1c1.2,0,2.1-0.4,2.9-1.2c0.8-0.8,1.2-1.8,1.2-3c0-1.2-0.4-2.2-1.2-3c-0.8-0.8-1.7-1.2-2.9-1.2
	c-1.1,0-2.1,0.4-2.9,1.2c-0.8,0.8-1.2,1.8-1.2,3c0,1.2,0.4,2.2,1.2,3C268,118.7,268.9,119.1,270.1,119.1 M270.1,122
	c-2,0-3.8-0.7-5.1-2c-1.4-1.4-2.1-3-2.1-5c0-2,0.7-3.6,2.1-5c1.4-1.3,3.1-2,5.1-2c2.1,0,3.8,0.7,5.2,2c1.4,1.3,2.1,3,2.1,5
	c0,2-0.7,3.7-2.1,5C273.8,121.3,272.1,122,270.1,122"/>
<path fill="#1C3E94" d="M291.4,115.4c0,1.3-0.2,2.3-0.4,3c-0.3,0.7-0.7,1.3-1.2,1.9c-0.5,0.6-1.2,1-2,1.2c-0.8,0.3-1.7,0.4-2.7,0.4
	c-0.9,0-1.8-0.1-2.5-0.4c-0.7-0.3-1.4-0.7-1.9-1.3c-0.5-0.6-0.9-1.2-1.2-1.9c-0.3-0.7-0.4-1.7-0.4-3v-7.3h3.2v7.2
	c0,1.3,0.3,2.2,0.8,2.9c0.5,0.6,1.2,1,2.2,1c2,0,3-1.3,3-3.8v-7.2h3.2V115.4z"/>
<path fill="#1C3E94" d="M296.7,110.7v3.2h1.1c0.6,0,1-0.2,1.4-0.5c0.3-0.3,0.5-0.7,0.5-1.2c0-0.4-0.2-0.8-0.5-1.1
	c-0.3-0.3-0.8-0.4-1.3-0.4H296.7z M300.7,121.7l-3.4-5.1h-0.6v5.1h-3.2v-13.6h4.6c1.5,0,2.7,0.4,3.5,1.1c0.8,0.7,1.3,1.7,1.3,3
	c0,0.9-0.2,1.6-0.6,2.2c-0.4,0.6-1,1.1-1.8,1.4l3.9,5.8H300.7z"/>
<polygon fill="#1C3E94" points="314.8,121.7 308.8,113.3 308.8,121.7 305.6,121.7 305.6,108.2 308.9,108.2 314.9,116.7 314.9,108.2 
	318.1,108.2 318.1,121.7 "/>
<polygon fill="#1C3E94" points="320.3,121.7 320.3,108.2 328.8,108.2 328.8,110.9 323.5,110.9 323.5,113.2 327.7,113.2 327.7,115.9 
	323.5,115.9 323.5,118.9 329.2,118.9 329.2,121.7 "/>
<polygon fill="#1C3E94" points="337.8,116.2 337.8,121.7 334.7,121.7 334.7,116.2 330,108.2 333.7,108.2 336.3,113.2 338.9,108.2 
	342.5,108.2 "/>
<polygon fill="#1C3E94" points="360.4,121.7 360.4,113.3 356.6,118.1 352.9,113.3 352.9,121.7 349.7,121.7 349.7,108.2 352.7,108.2 
	356.6,113.3 360.4,108.2 363.6,108.2 363.6,121.7 "/>
<path fill="#1C3E94" d="M371.6,111.9l-1.5,4.6h3L371.6,111.9z M374.9,121.7l-0.8-2.5h-4.8l-0.8,2.5H365l5-13.6h3.2l5.1,13.6H374.9z"
	/>
<polygon fill="#1C3E94" points="385.9,111 385.9,121.7 382.7,121.7 382.7,111 379.1,111 379.1,108.2 389.6,108.2 389.6,111 "/>
<polygon fill="#1C3E94" points="397.2,111 397.2,121.7 394.1,121.7 394.1,111 390.4,111 390.4,108.2 400.9,108.2 400.9,111 "/>
<polygon fill="#1C3E94" points="402.4,121.7 402.4,108.2 410.9,108.2 410.9,110.9 405.6,110.9 405.6,113.2 409.8,113.2 409.8,115.9 
	405.6,115.9 405.6,118.9 411.3,118.9 411.3,121.7 "/>
<path fill="#1C3E94" d="M416.2,110.7v3.2h1.1c0.6,0,1-0.2,1.4-0.5c0.3-0.3,0.5-0.7,0.5-1.2c0-0.4-0.2-0.8-0.5-1.1
	c-0.3-0.3-0.7-0.4-1.3-0.4H416.2z M420.1,121.7l-3.4-5.1h-0.6v5.1H413v-13.6h4.6c1.5,0,2.7,0.4,3.5,1.1c0.8,0.7,1.2,1.7,1.2,3
	c0,0.9-0.2,1.6-0.6,2.2c-0.4,0.6-1,1.1-1.8,1.4l3.9,5.8H420.1z"/>
<path fill="#1C3E94" d="M424.5,119l2.4-1.4c0.5,1.1,1.2,1.6,2.3,1.6c0.6,0,1-0.1,1.3-0.4c0.3-0.2,0.5-0.6,0.5-1
	c0-0.4-0.1-0.6-0.4-0.9c-0.3-0.3-0.9-0.6-2.1-1.1c-1.3-0.6-2.2-1.2-2.7-1.8c-0.5-0.6-0.7-1.4-0.7-2.3c0-1.1,0.4-2,1.3-2.8
	c0.8-0.8,1.9-1.1,3.2-1.1c1.9,0,3.2,0.7,4.1,2.2l-2.2,1.4c-0.4-0.7-1-1.1-1.9-1.1c-0.4,0-0.8,0.1-1,0.3c-0.3,0.2-0.4,0.5-0.4,0.8
	c0,0.3,0.2,0.6,0.4,0.9c0.3,0.2,0.9,0.6,1.8,1c1.4,0.6,2.3,1.3,2.9,1.9c0.6,0.6,0.8,1.5,0.8,2.4c0,1.2-0.5,2.2-1.5,3
	c-1,0.8-2.2,1.2-3.6,1.2C427.1,122,425.5,121,424.5,119"/>
<polygon fill="#1C3E94" points="201.5,16.3 201.5,37.3 195.3,37.3 195.3,16.3 188.1,16.3 188.1,10.7 208.7,10.7 208.7,16.3 "/>
<path fill="#1C3E94" d="M218,15.7V22h2.2c1.1,0,2.1-0.3,2.7-0.9c0.7-0.6,1-1.4,1-2.3c0-0.9-0.3-1.6-1-2.2c-0.6-0.6-1.5-0.9-2.6-0.9
	H218z M225.8,37.3l-6.6-10.1H218v10.1h-6.3V10.7h9.1c3,0,5.3,0.7,6.9,2.2c1.6,1.4,2.5,3.4,2.5,5.9c0,1.7-0.4,3.1-1.3,4.4
	c-0.8,1.2-2.1,2.2-3.6,2.8l7.6,11.4H225.8z"/>
<path fill="#1C3E94" d="M246.9,18l-3,9.1h6L246.9,18z M253.4,37.3l-1.6-4.8h-9.5l-1.6,4.8h-6.8l9.8-26.6h6.3l10.1,26.6H253.4z"/>
<polygon fill="#1C3E94" points="280.9,37.3 269.2,20.9 269.2,37.3 263,37.3 263,10.7 269.3,10.7 281.2,27.4 281.2,10.7 287.4,10.7 
	287.4,37.3 "/>
<path fill="#1C3E94" d="M290.8,32.1l4.7-2.8c0.9,2.2,2.4,3.2,4.4,3.2c1.1,0,1.9-0.2,2.6-0.7c0.6-0.5,1-1.1,1-1.9
	c0-0.7-0.2-1.3-0.7-1.8c-0.5-0.5-1.8-1.3-4.1-2.3c-2.6-1.1-4.3-2.3-5.3-3.5c-0.9-1.2-1.4-2.7-1.4-4.4c0-2.1,0.8-4,2.5-5.4
	c1.7-1.5,3.8-2.2,6.3-2.2c3.7,0,6.4,1.5,8,4.4l-4.3,2.8c-0.8-1.4-2.1-2.1-3.7-2.1c-0.8,0-1.5,0.2-2,0.6c-0.5,0.4-0.8,0.9-0.8,1.6
	c0,0.7,0.3,1.2,0.8,1.7c0.5,0.5,1.7,1.1,3.5,2c2.7,1.3,4.6,2.5,5.7,3.8c1.1,1.3,1.7,2.9,1.7,4.8c0,2.4-1,4.3-2.8,5.8
	c-1.9,1.5-4.2,2.3-7,2.3C295.7,37.8,292.7,35.9,290.8,32.1"/>
<path fill="#1C3E94" d="M319.5,15.8v7.7h2c1.5,0,2.6-0.3,3.4-1c0.8-0.7,1.2-1.6,1.2-2.8c0-1.3-0.4-2.2-1.2-2.9c-0.8-0.7-1.9-1-3.4-1
	H319.5z M319.5,28.6v8.7h-6.3V10.7h8.9c3.2,0,5.7,0.8,7.5,2.4c1.8,1.6,2.7,3.8,2.7,6.5c0,2.8-1,5-2.8,6.6c-1.9,1.6-4.4,2.4-7.6,2.4
	H319.5z"/>
<path fill="#1C3E94" d="M349,32.2c2.3,0,4.1-0.8,5.7-2.4c1.5-1.6,2.3-3.5,2.3-5.9c0-2.3-0.8-4.3-2.3-5.9c-1.5-1.6-3.4-2.3-5.7-2.3
	c-2.3,0-4.1,0.8-5.7,2.4c-1.5,1.6-2.3,3.5-2.3,5.8c0,2.3,0.8,4.3,2.3,5.9C344.9,31.4,346.8,32.2,349,32.2 M349,37.8
	c-4,0-7.4-1.3-10.1-4c-2.7-2.7-4.1-5.9-4.1-9.8c0-3.9,1.3-7.2,4.1-9.8c2.7-2.7,6.1-4,10.1-4c4,0,7.4,1.3,10.1,4
	c2.7,2.6,4.1,5.9,4.1,9.8c0,3.9-1.4,7.2-4.1,9.9C356.4,36.5,353.1,37.8,349,37.8"/>
<path fill="#1C3E94" d="M373,15.7V22h2.2c1.1,0,2.1-0.3,2.7-0.9c0.7-0.6,1-1.4,1-2.3c0-0.9-0.3-1.6-1-2.2c-0.6-0.6-1.5-0.9-2.6-0.9
	H373z M380.8,37.3l-6.6-10.1H373v10.1h-6.3V10.7h9.1c3,0,5.3,0.7,6.9,2.2c1.6,1.4,2.5,3.4,2.5,5.9c0,1.7-0.4,3.1-1.3,4.4
	c-0.8,1.2-2,2.2-3.6,2.8l7.6,11.4H380.8z"/>
<polygon fill="#1C3E94" points="402.6,16.3 402.6,37.3 396.3,37.3 396.3,16.3 389.1,16.3 389.1,10.7 409.8,10.7 409.8,16.3 "/>
<polygon fill="#1C3E94" points="194.3,58.3 194.3,62.9 202.7,62.9 202.7,68.3 194.3,68.3 194.3,79.6 188.1,79.6 188.1,53 204.9,53 
	204.9,58.3 "/>
<path fill="#1C3E94" d="M221.2,74.5c2.3,0,4.1-0.8,5.7-2.4c1.5-1.6,2.3-3.5,2.3-5.9c0-2.3-0.8-4.3-2.3-5.8c-1.5-1.6-3.4-2.3-5.7-2.3
	c-2.3,0-4.1,0.8-5.7,2.4c-1.5,1.6-2.3,3.5-2.3,5.8c0,2.3,0.8,4.3,2.3,5.8C217.1,73.7,219,74.5,221.2,74.5 M221.2,80.1
	c-4,0-7.4-1.3-10.1-4c-2.7-2.7-4.1-5.9-4.1-9.8c0-3.9,1.3-7.2,4.1-9.8c2.7-2.7,6.1-4,10.1-4c4,0,7.4,1.3,10.1,4
	c2.7,2.6,4.1,5.9,4.1,9.8c0,3.9-1.4,7.2-4.1,9.9C228.6,78.8,225.2,80.1,221.2,80.1"/>
<path fill="#1C3E94" d="M245.2,58v6.3h2.2c1.1,0,2.1-0.3,2.7-0.9c0.7-0.6,1-1.4,1-2.3c0-0.8-0.3-1.6-0.9-2.2
	c-0.6-0.6-1.5-0.9-2.6-0.9H245.2z M253,79.6l-6.6-10.1h-1.2v10.1H239V53h9.1c3,0,5.3,0.7,6.9,2.2c1.6,1.4,2.5,3.4,2.5,5.9
	c0,1.7-0.4,3.1-1.3,4.4c-0.8,1.2-2.1,2.2-3.6,2.8l7.6,11.4H253z"/>
<polygon fill="#1C3E94" points="271.3,79.6 271.3,53 277.5,53 277.5,74 287.7,74 287.7,79.6 "/>
<path fill="#1C3E94" d="M304.1,74.5c2.3,0,4.1-0.8,5.7-2.4c1.5-1.6,2.3-3.5,2.3-5.9c0-2.3-0.8-4.3-2.3-5.8c-1.5-1.6-3.4-2.3-5.7-2.3
	c-2.3,0-4.2,0.8-5.7,2.4c-1.5,1.6-2.3,3.5-2.3,5.8c0,2.3,0.8,4.3,2.3,5.8C299.9,73.7,301.8,74.5,304.1,74.5 M304.1,80.1
	c-4,0-7.4-1.3-10.1-4c-2.7-2.7-4.1-5.9-4.1-9.8c0-3.9,1.3-7.2,4.1-9.8c2.7-2.7,6.1-4,10.1-4c4,0,7.4,1.3,10.1,4
	c2.7,2.6,4.1,5.9,4.1,9.8c0,3.9-1.4,7.2-4.1,9.9C311.5,78.8,308.1,80.1,304.1,80.1"/>
<polygon fill="#1C3E94" points="339.7,79.6 328,63.1 328,79.6 321.8,79.6 321.8,53 328.1,53 339.9,69.7 339.9,53 346.2,53 
	346.2,79.6 "/>
<path fill="#1C3E94" d="M356.8,58.2v16.2h1.7c2.9,0,5.2-0.7,6.8-2.1c1.6-1.4,2.5-3.4,2.5-6c0-2.6-0.8-4.6-2.5-6
	c-1.6-1.4-3.9-2.1-6.8-2.1H356.8z M350.6,79.6V53h8.6c4.5,0,8.1,1.2,10.8,3.5c2.7,2.4,4,5.6,4,9.6c0,4.3-1.3,7.6-4.1,10
	c-2.7,2.4-6.4,3.5-11.2,3.5H350.6z"/>
<path fill="#1C3E94" d="M390.9,74.5c2.3,0,4.1-0.8,5.7-2.4c1.5-1.6,2.3-3.5,2.3-5.9c0-2.3-0.8-4.3-2.3-5.8c-1.5-1.6-3.4-2.3-5.7-2.3
	c-2.3,0-4.1,0.8-5.6,2.4c-1.5,1.6-2.3,3.5-2.3,5.8c0,2.3,0.8,4.3,2.3,5.8C386.7,73.7,388.6,74.5,390.9,74.5 M390.9,80.1
	c-4,0-7.4-1.3-10.1-4c-2.7-2.7-4.1-5.9-4.1-9.8c0-3.9,1.3-7.2,4-9.8c2.7-2.7,6.1-4,10.1-4c4,0,7.4,1.3,10.1,4
	c2.7,2.6,4.1,5.9,4.1,9.8c0,3.9-1.4,7.2-4.1,9.9C398.3,78.8,394.9,80.1,390.9,80.1"/>
<polygon fill="#1C3E94" points="427,79.6 415.3,63.1 415.3,79.6 409.1,79.6 409.1,53 415.4,53 427.2,69.7 427.2,53 433.5,53 
	433.5,79.6 "/>
</svg>
